<svg width="22" height="19" viewBox="0 0 22 19" fill="none" xmlns="http://www.w3.org/2000/svg">
<path d="M14.6 1H7.4C5.15979 1 4.03969 1 3.18404 1.43597C2.43139 1.81947 1.81947 2.43139 1.43597 3.18404C1 4.03969 1 5.15979 1 7.4V11.6C1 13.8402 1 14.9603 1.43597 15.816C1.81947 16.5686 2.43139 17.1805 3.18404 17.564C4.03969 18 5.15979 18 7.4 18H14.6C16.8402 18 17.9603 18 18.816 17.564C19.5686 17.1805 20.1805 16.5686 20.564 15.816C21 14.9603 21 13.8402 21 11.6V7.4C21 5.15979 21 4.03969 20.564 3.18404C20.1805 2.43139 19.5686 1.81947 18.816 1.43597C17.9603 1 16.8402 1 14.6 1Z" stroke="#B4B4B4" stroke-width="2"/>
<path d="M10 1V18" stroke="#B4B4B4" stroke-width="2"/>
<path d="M6.5 9H4.5C4.22386 9 4 9.22386 4 9.5C4 9.77614 4.22386 10 4.5 10H6.5C6.77614 10 7 9.77614 7 9.5C7 9.22386 6.77614 9 6.5 9Z" stroke="#B4B4B4"/>
<path d="M6.5 5H4.5C4.22386 5 4 5.22386 4 5.5C4 5.77614 4.22386 6 4.5 6H6.5C6.77614 6 7 5.77614 7 5.5C7 5.22386 6.77614 5 6.5 5Z" stroke="#B4B4B4"/>
</svg>
