<svg width="20" height="17" viewBox="0 0 20 17" fill="none" xmlns="http://www.w3.org/2000/svg">
<path d="M15.2797 6.20887C14.8882 5.81932 14.8866 5.18616 15.2761 4.79466C15.6657 4.40316 16.2988 4.40158 16.6903 4.79113L15.2797 6.20887ZM19.7053 7.79113C20.0968 8.18068 20.0984 8.81384 19.7089 9.20534C19.3193 9.59684 18.6862 9.59842 18.2947 9.20887L19.7053 7.79113ZM18.2947 7.79113C18.6862 7.40158 19.3193 7.40316 19.7089 7.79466C20.0984 8.18616 20.0968 8.81932 19.7053 9.20887L18.2947 7.79113ZM16.6903 12.2089C16.2988 12.5984 15.6657 12.5968 15.2761 12.2053C14.8866 11.8138 14.8882 11.1807 15.2797 10.7911L16.6903 12.2089ZM19 7.5C19.5523 7.5 20 7.94772 20 8.5C20 9.05228 19.5523 9.5 19 9.5V7.5ZM5 9.5C4.44772 9.5 4 9.05228 4 8.5C4 7.94772 4.44772 7.5 5 7.5L5 9.5ZM16.6903 4.79113L19.7053 7.79113L18.2947 9.20887L15.2797 6.20887L16.6903 4.79113ZM19.7053 9.20887L16.6903 12.2089L15.2797 10.7911L18.2947 7.79113L19.7053 9.20887ZM19 9.5L5 9.5L5 7.5L19 7.5V9.5Z" fill="#DD2E44"/>
<path d="M13 11.5C13 13.7091 11.2091 15.5 9 15.5H5C2.79086 15.5 1 13.7091 1 11.5V5.5C1 3.29086 2.79086 1.5 5 1.5H9C11.2091 1.5 13 3.29086 13 5.5" stroke="#DD2E44" stroke-width="2" stroke-linecap="round" stroke-linejoin="round"/>
</svg>
