<svg width="18" height="19" viewBox="0 0 18 19" fill="none" xmlns="http://www.w3.org/2000/svg">
<path fill-rule="evenodd" clip-rule="evenodd" d="M14.8858 1.14457L16.6677 2.5576C16.8398 2.71888 16.9368 2.94415 16.9355 3.17948C16.9342 3.41481 16.8347 3.639 16.6608 3.7984L15.3068 5.412L10.6996 10.884C10.6191 10.9759 10.5116 11.0405 10.3924 11.0687L8.00293 11.608C7.68944 11.6237 7.41653 11.3968 7.37598 11.0868V8.64146C7.38411 8.52358 7.4318 8.41183 7.51138 8.32418L12.0332 3.23296L13.5852 1.38706C13.8923 0.986246 14.4539 0.881525 14.8858 1.14457Z" stroke="#B4B4B4" stroke-width="1.5" stroke-linecap="round" stroke-linejoin="round"/>
<path d="M8.4375 3.86743C8.85172 3.86743 9.1875 3.53165 9.1875 3.11743C9.1875 2.70322 8.85172 2.36743 8.4375 2.36743V3.86743ZM5.25152 3.11743V2.36743L5.24972 2.36743L5.25152 3.11743ZM1.00392 7.36673H1.75392L1.75391 7.36512L1.00392 7.36673ZM1.00392 13.7407L1.75392 13.7423V13.7407H1.00392ZM5.25152 17.99L5.24972 18.74H5.25152V17.99ZM11.6235 17.99V18.74L11.6253 18.74L11.6235 17.99ZM15.8711 13.7407H15.1211L15.1211 13.7423L15.8711 13.7407ZM16.6211 9.49138C16.6211 9.07717 16.2853 8.74138 15.8711 8.74138C15.4569 8.74138 15.1211 9.07717 15.1211 9.49138H16.6211ZM12.7261 2.94582C12.5675 2.56318 12.1287 2.38157 11.746 2.54019C11.3634 2.69881 11.1818 3.13758 11.3404 3.52022L12.7261 2.94582ZM15.4681 6.13999C15.8726 6.05094 16.1284 5.65081 16.0393 5.24628C15.9502 4.84175 15.5501 4.58601 15.1456 4.67507L15.4681 6.13999ZM4.18998 14.0534C3.77577 14.0534 3.43998 14.3892 3.43998 14.8034C3.43998 15.2177 3.77577 15.5534 4.18998 15.5534V14.0534ZM12.6863 15.5534C13.1005 15.5534 13.4363 15.2177 13.4363 14.8034C13.4363 14.3892 13.1005 14.0534 12.6863 14.0534V15.5534ZM8.4375 2.36743H5.25152V3.86743H8.4375V2.36743ZM5.24972 2.36743C2.48742 2.37404 0.247988 4.6099 0.253918 7.36834L1.75391 7.36512C1.74978 5.44081 3.31342 3.87207 5.25331 3.86743L5.24972 2.36743ZM0.253916 7.36673V13.7407H1.75392V7.36673H0.253916ZM0.253918 13.7391C0.247988 16.4975 2.48742 18.7334 5.24972 18.74L5.25331 17.24C3.31342 17.2353 1.74978 15.6666 1.75391 13.7423L0.253918 13.7391ZM5.25152 18.74H11.6235V17.24H5.25152V18.74ZM11.6253 18.74C14.3876 18.7334 16.627 16.4975 16.6211 13.7391L15.1211 13.7423C15.1252 15.6666 13.5616 17.2353 11.6217 17.24L11.6253 18.74ZM16.6211 13.7407V9.49138H15.1211V13.7407H16.6211ZM11.3404 3.52022C11.5578 4.04455 12.0022 4.78881 12.6639 5.36216C13.3393 5.94738 14.3001 6.39713 15.4681 6.13999L15.1456 4.67507C14.5739 4.80093 14.081 4.60535 13.6462 4.22853C13.1976 3.83984 12.8751 3.30534 12.7261 2.94582L11.3404 3.52022ZM4.18998 15.5534H12.6863V14.0534H4.18998V15.5534Z" fill="#B4B4B4"/>
</svg>
