<svg width="18" height="16" viewBox="0 0 18 16" fill="none" xmlns="http://www.w3.org/2000/svg">
<path fill-rule="evenodd" clip-rule="evenodd" d="M15.367 11.8321L15.373 6.03908L11.25 1.92908C10.0057 0.690305 7.99422 0.690305 6.74999 1.92908L2.63599 6.02908V11.8291C2.6393 13.5833 4.06377 15.0028 5.81799 15.0001H12.185C13.938 15.0029 15.362 13.5851 15.367 11.8321Z" stroke="#B4B4B4" stroke-width="1.5" stroke-linecap="round" stroke-linejoin="round"/>
<path d="M16.124 2.01807C16.124 1.60385 15.7882 1.26807 15.374 1.26807C14.9598 1.26807 14.624 1.60385 14.624 2.01807H16.124ZM15.374 6.03907H14.624C14.624 6.23838 14.7033 6.42949 14.8445 6.57021L15.374 6.03907ZM16.4705 8.19121C16.7638 8.48365 17.2387 8.48292 17.5311 8.18958C17.8236 7.89624 17.8229 7.42136 17.5295 7.12892L16.4705 8.19121ZM3.16552 6.56021C3.45886 6.26776 3.45959 5.79289 3.16714 5.49955C2.8747 5.20621 2.39982 5.20548 2.10648 5.49793L3.16552 6.56021ZM0.470482 7.12893C0.177141 7.42137 0.176414 7.89624 0.468859 8.18958C0.761303 8.48293 1.23618 8.48365 1.52952 8.19121L0.470482 7.12893ZM10.25 15.0001C10.25 15.4143 10.5858 15.7501 11 15.7501C11.4142 15.7501 11.75 15.4143 11.75 15.0001H10.25ZM6.25 15.0001C6.25 15.4143 6.58579 15.7501 7 15.7501C7.41421 15.7501 7.75 15.4143 7.75 15.0001H6.25ZM14.624 2.01807V6.03907H16.124V2.01807H14.624ZM14.8445 6.57021L16.4705 8.19121L17.5295 7.12892L15.9035 5.50792L14.8445 6.57021ZM2.10648 5.49793L0.470482 7.12893L1.52952 8.19121L3.16552 6.56021L2.10648 5.49793ZM11.75 15.0001V13.2201H10.25V15.0001H11.75ZM11.75 13.2201C11.75 11.7013 10.5188 10.4701 9 10.4701V11.9701C9.69036 11.9701 10.25 12.5297 10.25 13.2201H11.75ZM9 10.4701C7.48122 10.4701 6.25 11.7013 6.25 13.2201H7.75C7.75 12.5297 8.30964 11.9701 9 11.9701V10.4701ZM6.25 13.2201V15.0001H7.75V13.2201H6.25Z" fill="#B4B4B4"/>
</svg>
