<svg width="19" height="19" viewBox="0 0 19 19" fill="none" xmlns="http://www.w3.org/2000/svg">
<path d="M17.8901 13.1085L17.2505 12.7168L17.8901 13.1085ZM16.9815 14.5923L17.6211 14.984L16.9815 14.5923ZM1.24377 6.02538L0.604157 5.63371H0.604157L1.24377 6.02538ZM2.15238 4.54154L2.792 4.9332V4.9332L2.15238 4.54154ZM4.63477 3.9144L4.99335 3.25567L4.99335 3.25567L4.63477 3.9144ZM1.90892 8.3659L1.55034 9.02463H1.55034L1.90892 8.3659ZM14.4991 15.2194L14.1405 15.8782L14.1405 15.8782L14.4991 15.2194ZM17.2249 10.7679L16.8664 11.4267L16.8664 11.4267L17.2249 10.7679ZM2.15238 14.5923L1.51277 14.984L1.51277 14.984L2.15238 14.5923ZM1.24377 13.1085L1.88338 12.7168L1.88338 12.7168L1.24377 13.1085ZM16.9815 4.54155L17.6211 4.14989V4.14989L16.9815 4.54155ZM17.8901 6.02539L17.2505 6.41705V6.41705L17.8901 6.02539ZM17.2249 8.36592L17.5835 9.02464L17.2249 8.36592ZM14.4991 3.91441L14.1405 3.25568L14.1405 3.25569L14.4991 3.91441ZM1.90892 10.768L2.2675 11.4267H2.2675L1.90892 10.768ZM4.63477 15.2195L4.27619 14.5607L4.27619 14.5607L4.63477 15.2195ZM14.4025 3.96699L14.7611 4.62572L14.7611 4.62572L14.4025 3.96699ZM4.73137 3.96698L4.37279 4.62571L4.37279 4.62571L4.73137 3.96698ZM14.4025 15.1669L14.7611 14.5081L14.7611 14.5081L14.4025 15.1669ZM4.73137 15.1669L5.08995 15.8256H5.08995L4.73137 15.1669ZM8.65831 1.75H10.4755V0.25H8.65831V1.75ZM10.4755 17.3839H8.65831V18.8839H10.4755V17.3839ZM8.65831 17.3839C8.0267 17.3839 7.59108 16.9116 7.59108 16.4205H6.09108C6.09108 17.8219 7.28266 18.8839 8.65831 18.8839V17.3839ZM11.5428 16.4205C11.5428 16.9116 11.1072 17.3839 10.4755 17.3839V18.8839C11.8512 18.8839 13.0428 17.8219 13.0428 16.4205H11.5428ZM10.4755 1.75C11.1072 1.75 11.5428 2.22229 11.5428 2.71339H13.0428C13.0428 1.31193 11.8512 0.25 10.4755 0.25V1.75ZM8.65831 0.25C7.28266 0.25 6.09108 1.31193 6.09108 2.71339H7.59108C7.59108 2.22229 8.0267 1.75 8.65831 1.75V0.25ZM17.2505 12.7168L16.3419 14.2006L17.6211 14.984L18.5297 13.5001L17.2505 12.7168ZM1.88338 6.41704L2.792 4.9332L1.51277 4.14988L0.604157 5.63371L1.88338 6.41704ZM2.792 4.9332C3.07527 4.4706 3.74074 4.28165 4.27619 4.57312L4.99335 3.25567C3.79046 2.60087 2.23313 2.97348 1.51277 4.14988L2.792 4.9332ZM2.2675 7.70718C1.75545 7.42844 1.61734 6.85149 1.88338 6.41704L0.604157 5.63371C-0.133437 6.83826 0.324052 8.35709 1.55034 9.02463L2.2675 7.70718ZM16.3419 14.2006C16.0586 14.6632 15.3931 14.8522 14.8577 14.5607L14.1405 15.8782C15.3434 16.533 16.9007 16.1604 17.6211 14.984L16.3419 14.2006ZM18.5297 13.5001C19.2673 12.2956 18.8098 10.7768 17.5835 10.1092L16.8664 11.4267C17.3784 11.7054 17.5165 12.2824 17.2505 12.7168L18.5297 13.5001ZM2.79199 14.2007L1.88338 12.7168L0.604156 13.5001L1.51277 14.984L2.79199 14.2007ZM16.3419 4.93321L17.2505 6.41705L18.5297 5.63373L17.6211 4.14989L16.3419 4.93321ZM17.2505 6.41705C17.5165 6.8515 17.3784 7.42845 16.8664 7.70719L17.5835 9.02464C18.8098 8.3571 19.2673 6.83827 18.5297 5.63373L17.2505 6.41705ZM14.8577 4.57314C15.3931 4.28166 16.0586 4.47061 16.3419 4.93321L17.6211 4.14989C16.9007 2.9735 15.3434 2.60088 14.1405 3.25568L14.8577 4.57314ZM1.88338 12.7168C1.61734 12.2824 1.75545 11.7054 2.2675 11.4267L1.55034 10.1092C0.32405 10.7768 -0.133438 12.2956 0.604156 13.5001L1.88338 12.7168ZM1.51277 14.984C2.23313 16.1604 3.79046 16.533 4.99335 15.8782L4.27619 14.5607C3.74074 14.8522 3.07527 14.6633 2.79199 14.2007L1.51277 14.984ZM14.7611 4.62572L14.8577 4.57313L14.1405 3.25569L14.0439 3.30827L14.7611 4.62572ZM4.27619 4.57312L4.37279 4.62571L5.08996 3.30826L4.99335 3.25567L4.27619 4.57312ZM14.8577 14.5607L14.7611 14.5081L14.0439 15.8256L14.1405 15.8782L14.8577 14.5607ZM4.37279 14.5081L4.27619 14.5607L4.99335 15.8782L5.08995 15.8256L4.37279 14.5081ZM1.55034 9.02463C1.97999 9.25851 1.97999 9.87534 1.55034 10.1092L2.2675 11.4267C3.74093 10.6246 3.74094 8.50925 2.2675 7.70718L1.55034 9.02463ZM5.08995 15.8256C5.54128 15.5799 6.09108 15.9066 6.09108 16.4205H7.59108C7.59108 14.7686 5.82364 13.7184 4.37279 14.5081L5.08995 15.8256ZM13.0428 16.4205C13.0428 15.9066 13.5926 15.5799 14.0439 15.8256L14.7611 14.5081C13.3102 13.7184 11.5428 14.7686 11.5428 16.4205H13.0428ZM17.5835 10.1092C17.1539 9.87534 17.1539 9.25852 17.5835 9.02464L16.8664 7.70719C15.3929 8.50926 15.3929 10.6246 16.8664 11.4267L17.5835 10.1092ZM4.37279 4.62571C5.82364 5.41549 7.59108 4.36527 7.59108 2.71339H6.09108C6.09108 3.22724 5.54128 3.55394 5.08996 3.30826L4.37279 4.62571ZM14.0439 3.30827C13.5926 3.55395 13.0428 3.22725 13.0428 2.71339H11.5428C11.5428 4.36528 13.3102 5.4155 14.7611 4.62572L14.0439 3.30827ZM11.6726 9.56693C11.6726 10.7298 10.7299 11.6726 9.56694 11.6726V13.1726C11.5583 13.1726 13.1726 11.5583 13.1726 9.56693H11.6726ZM9.56694 11.6726C8.40402 11.6726 7.46129 10.7298 7.46129 9.56693H5.96129C5.96129 11.5583 7.57559 13.1726 9.56694 13.1726V11.6726ZM7.46129 9.56693C7.46129 8.40401 8.40402 7.46129 9.56694 7.46129V5.96129C7.57559 5.96129 5.96129 7.57559 5.96129 9.56693H7.46129ZM9.56694 7.46129C10.7299 7.46129 11.6726 8.40401 11.6726 9.56693H13.1726C13.1726 7.57559 11.5583 5.96129 9.56694 5.96129V7.46129Z" fill="#B4B4B4"/>
</svg>
