<?xml version="1.0" encoding="UTF-8"?>
<svg id="Art" xmlns="http://www.w3.org/2000/svg" version="1.1" viewBox="0 0 576 161.1">
  <!-- Generator: Adobe Illustrator 29.1.0, SVG Export Plug-In . SVG Version: 2.1.0 Build 142)  -->
  <defs>
    <style>
      .st0 {
        fill: #ff2100;
      }
    </style>
  </defs>
  <g id="Logo">
    <path id="Wordmark" class="st0" d="M576,161.1h-52.8v-20h23.6v-14.3h-22.1c-17.3,0-30.7-13-30.7-30.5V31.5h30.5v75.3h21V31.5h30.5v129.6ZM430,72.4h21v-21h-21v21ZM429.3,126.8c-17.3,0-30.7-13-30.7-30.5v-34.1c0-17.5,13.3-30.7,30.7-30.7h20.6c17.3,0,30.7,13.2,30.7,30.7v30.3h-50.5v14.3h41v20h-41.8M360.3,0h34.9l-32,62.5,33,64.2h-34.9l-33-64.2L360.3,0ZM292,0h32.4v126.7h-32.4V0ZM245.3,0h30.5v20h-30.5V0ZM245.3,31.5h30.5v95.3h-30.5V31.5ZM178.6,106.7h21v-55.3h-21v55.3ZM176.7,141.1h23.8v-14.3h-22.7c-17.3,0-30.7-13-30.7-30.5v-34.1c0-17.5,13.3-30.7,30.7-30.7h52.2v129.6h-53.4v-20h.1ZM102.4,0h30.5v20h-30.5V0ZM102.4,31.5h30.5v95.3h-30.5V31.5ZM32.4,105.8h22.3V21h-22.3v84.8ZM0,0h56.4c18.5,0,30.7,11.2,30.7,28.6v67.7c0,14.9-8.2,30.5-30.7,30.5H0V0Z"/>
  </g>
</svg>